# xmcd
#
# Track frame offsets:
#	150
#	13785
#	30513
#	47798
#	63132
#	76628
#	95194
#	111671
#	125055
#	140389
#	155389
#	169052
#	188733
#	202033
#	214748
#	225847
#	239621
#	258382
#
# Disc length: 3720 seconds
#
# Revision: 0
# Processed by: cddbd v1.5.2PL0 Copyright (c) Steve Scherf et al.
# Submitted via: EasyCDDAExtractor 16.0.8.2
#
DISCID=f70e8612
DTITLE=Συλλογικός δίσκος - Χοροί και τραγούδια Ηπείρου 3
DYEAR=1900
DGENRE=Παραδοσιακή
TTITLE0=Κιτσάκης Αλέκος - Βασιλικός θα γίνω
TTITLE1=Μπέλλος Στέλιος - Κάτω στις μαυροθάλασσες [στα τρία]
TTITLE2=Άνευ ερμηνευτού - Αρβανίτικο [οργανικό]
TTITLE3=Σιάτρας Σάββας - Βλαχούλα νεροβόλαγε
TTITLE4=Κιτσάκης Αλέκος - Βλαχοθανάσης [τσάμικος]
TTITLE5=Άνευ ερμηνευτού - Κλάματα [οργανικό]
TTITLE6=Σιάτρας Σάββας - Μπουλονάσαινα
TTITLE7=Καψάλης Γρηγόρης - Μπαζαρκάνα
TTITLE8=Άνευ ερμηνευτού - Χειμαριώτικο [οργανικό]
TTITLE9=Μπέλλος Στέλιος - Γιάννη μου το μαντήλι σου
TTITLE10=Κώστας Α. - Στην κεντησμένη σου ποδιά
TTITLE11=Κιτσάκης Αλέκος - Κλέφτες
TTITLE12=Άνευ ερμηνευτού - Καραμαντάτικο [οργανικό]
TTITLE13=Βάγιας Δημήτρης - Αλεξάνδρα
TTITLE14=Άνευ ερμηνευτού - Γκρίμποβο [οργανικό]
TTITLE15=Βάγιας Δημήτρης - Μαρίκα
TTITLE16=Άνευ ερμηνευτού - Γιάννης Κώστα [οργανικό]
TTITLE17=Γεροδήμος Κώστας - Μπαλατσός
EXTD=
EXTT0=
EXTT1=
EXTT2=
EXTT3=
EXTT4=
EXTT5=
EXTT6=
EXTT7=
EXTT8=
EXTT9=
EXTT10=
EXTT11=
EXTT12=
EXTT13=
EXTT14=
EXTT15=
EXTT16=
EXTT17=
PLAYORDER=
